<svg width="18" height="14" viewBox="0 0 18 14" fill="none" xmlns="http://www.w3.org/2000/svg">
<path d="M5.10002 6.59998C6.59119 6.59998 7.80002 5.39115 7.80002 3.89998C7.80002 2.40881 6.59119 1.19998 5.10002 1.19998C3.60886 1.19998 2.40002 2.40881 2.40002 3.89998C2.40002 5.39115 3.60886 6.59998 5.10002 6.59998Z" fill="white"/>
<path d="M8.175 8.10001C7.119 7.56376 5.9535 7.35001 5.1 7.35001C3.42825 7.35001 0 8.37526 0 10.425V12H5.625V11.3974C5.625 10.6849 5.925 9.97051 6.45 9.37501C6.86887 8.89951 7.45537 8.45813 8.175 8.10001Z" fill="white"/>
<path d="M12.15 7.79999C10.1974 7.79999 6.30005 9.00599 6.30005 11.4V13.2H18V11.4C18 9.00599 14.1027 7.79999 12.15 7.79999Z" fill="white"/>
<path d="M12.15 6.6C13.9725 6.6 15.45 5.12254 15.45 3.3C15.45 1.47746 13.9725 0 12.15 0C10.3274 0 8.84998 1.47746 8.84998 3.3C8.84998 5.12254 10.3274 6.6 12.15 6.6Z" fill="white"/>
</svg>
